<?xml version="1.0" encoding="UTF-8" standalone="no"?>
<svg width="34px" height="34px" viewBox="0 0 34 34" version="1.1" xmlns="http://www.w3.org/2000/svg" xmlns:xlink="http://www.w3.org/1999/xlink">
    <!-- Generator: Sketch 41 (35326) - http://www.bohemiancoding.com/sketch -->
    <title>Profiel icoon</title>
    <desc>Created with Sketch.</desc>
    <defs>
        <path d="M29.9981171,15.0023488 C29.9981171,6.6466221 23.3720383,0 14.9985878,0 C6.6251373,0 0,6.64756169 0,15.0042279 C0,23.359015 6.62796171,29.9999996 14.9995293,29.9999996 C23.3729798,30.0018788 29.9971756,23.359015 29.9971756,15.0042279 L30,15.0023488 L29.9981171,15.0023488 Z" id="path-1"></path>
        <mask id="mask-3" maskContentUnits="userSpaceOnUse" maskUnits="objectBoundingBox" x="-2" y="-2" width="34" height="34">
            <rect x="-2" y="-2" width="34" height="34" fill="white"></rect>
            <use xlink:href="#path-1" fill="black"></use>
        </mask>
    </defs>
    <g id="Page-1" stroke="none" stroke-width="1" fill="none" fill-rule="evenodd">
        <g id="Desktop-HD-2.0" transform="translate(-1388.000000, -18.000000)">
            <g id="Navbar">
                <g id="Profiel-icoon" transform="translate(1390.000000, 20.000000)">
                    <mask id="mask-2" fill="white">
                        <use xlink:href="#path-1"></use>
                    </mask>
                    <g id="Shape">
                        <use fill="#FFFFFF" fill-rule="evenodd" xlink:href="#path-1"></use>
                        <use stroke="#00D66C" mask="url(#mask-3)" stroke-width="4" xlink:href="#path-1"></use>
                    </g>
                    <path d="M26.5075431,24.2361261 C26.3287527,23.6022328 25.9996208,23.0455529 25.5201374,22.5660695 C25.040654,22.0865861 24.4839741,21.7574542 23.8500808,21.5786638 L19.2178071,20.2377425 C18.7627043,20.6928453 18.2872915,21.1641948 17.7915544,21.651805 C17.2958174,22.1394152 16.8407214,22.5904478 16.4262527,23.0049165 C16.011784,23.4193852 15.670462,23.7647705 15.4022764,24.041083 C15.1340908,24.3173954 15,24.471803 15,24.5043103 L10.7578125,20.2621228 L6.14991918,21.5786638 C5.49977225,21.7574542 4.93902894,22.0865861 4.46767241,22.5660695 C3.99631589,23.0455529 3.66312059,23.6022328 3.46807651,24.2361261 L2.51724138,31.625 L27.4827586,31.625 L26.5075431,24.2361261 Z M15,19.0431034 C15.747669,19.0431034 16.4343764,18.8480623 17.0601428,18.4579741 C17.6859092,18.067886 18.2344624,17.5355862 18.705819,16.8610587 C19.1771755,16.1865313 19.5631944,15.39824 19.8638874,14.4961611 C20.1645803,13.5940822 20.3555581,12.6310665 20.4368265,11.6070851 C20.5180949,10.5831037 20.4205743,9.66478495 20.1442619,8.85210129 C19.8679494,8.03941763 19.4738037,7.34864688 18.961813,6.77976832 C18.4498223,6.21088976 17.8484454,5.77204716 17.1576643,5.46322737 C16.4668832,5.15440758 15.747669,5 15,5 C14.252331,5 13.5331168,5.15440758 12.8423357,5.46322737 C12.1515546,5.77204716 11.5501777,6.21088976 11.038187,6.77976832 C10.5261963,7.34864688 10.1320506,8.03941763 9.85573815,8.85210129 C9.5794257,9.66478495 9.48190513,10.5831037 9.56317349,11.6070851 C9.64444186,12.6310665 9.83541965,13.5940822 10.1361126,14.4961611 C10.4368056,15.39824 10.8228245,16.1865313 11.294181,16.8610587 C11.7655376,17.5355862 12.3140908,18.067886 12.9398572,18.4579741 C13.5656236,18.8480623 14.252331,19.0431034 15,19.0431034 Z" id="Volwassenen-Vinkje" fill="#00D66C" mask="url(#mask-2)"></path>
                </g>
            </g>
        </g>
    </g>
</svg>